<svg width="200" height="143" viewBox="0 0 200 143" fill="none" xmlns="http://www.w3.org/2000/svg">
<path d="M148.443 47.7199C148.445 54.0705 146.109 60.2057 141.867 64.9842C141.487 65.4148 141.088 65.8268 140.684 66.2325H103.025C102.62 65.8268 102.221 65.4148 101.842 64.9842C99.3539 62.1882 97.5002 58.9005 96.4049 55.3409C96.4049 55.3409 96.4114 55.3409 96.4049 55.3346C95.6475 52.8655 95.2637 50.2996 95.2658 47.7199C95.264 46.6579 95.3295 45.5969 95.462 44.5429C96.2495 38.1928 99.3637 32.3455 104.218 28.1021C109.073 23.8587 115.333 21.5119 121.821 21.5034C128.308 21.495 134.574 23.8256 139.44 28.0563C144.306 32.2871 147.436 38.1262 148.241 44.4743C148.375 45.551 148.443 46.635 148.443 47.7199V47.7199Z" fill="#2F2E41"/>
<path d="M88.3418 66.2331H85.0886L87.6139 64.9847L87.6899 64.9473L87.7089 64.9847L88.3418 66.2331Z" fill="#2F2E41"/>
<path d="M110.513 66.2331H107.26L107.892 64.9847L107.911 64.9473L107.987 64.9847L110.513 66.2331Z" fill="#2F2E41"/>
<path d="M119.992 50.2694C125.011 50.2694 129.08 46.2569 129.08 41.3073C129.08 36.3577 125.011 32.3452 119.992 32.3452C114.973 32.3452 110.905 36.3577 110.905 41.3073C110.905 46.2569 114.973 50.2694 119.992 50.2694Z" fill="white"/>
<path d="M119.038 45.2066C120.216 44.0448 120.21 42.1546 119.023 40.9846C117.837 39.8146 115.92 39.8079 114.742 40.9697C113.564 42.1314 113.571 44.0217 114.757 45.1917C115.943 46.3617 117.86 46.3684 119.038 45.2066Z" fill="#3F3D56"/>
<path d="M142.83 19.1939C143.23 9.48599 134.745 1.26328 123.88 0.828045C113.014 0.392805 103.882 7.90977 103.482 17.6177C103.082 27.3256 110.635 29.5313 121.501 29.9666C132.366 30.4019 142.43 28.9018 142.83 19.1939Z" fill="#00B0FF"/>
<path d="M129.157 58.0552C129.299 58.8271 129.286 59.6192 129.118 60.3861C128.95 61.153 128.631 61.8799 128.178 62.5251C127.726 63.1703 127.148 63.7212 126.48 64.1464C125.811 64.5717 125.064 64.8629 124.281 65.0034C123.499 65.1439 122.695 65.131 121.918 64.9654C121.14 64.7999 120.403 64.4848 119.749 64.0384C119.095 63.5919 118.536 63.0227 118.105 62.3633C117.673 61.7039 117.378 60.9672 117.236 60.1953L117.234 60.1838C116.638 56.9368 119.183 55.7878 122.476 55.2C125.768 54.6122 128.561 54.8082 129.157 58.0552Z" fill="white"/>
<path d="M193.182 64.9834H6.81818C5.00989 64.9834 3.27565 66.1671 1.99699 68.274C0.718337 70.381 0 73.2386 0 76.2183C0 79.198 0.718337 82.0556 1.99699 84.1625C3.27565 86.2695 5.00989 87.4532 6.81818 87.4532H193.182C194.99 87.4532 196.724 86.2695 198.003 84.1625C199.282 82.0556 200 79.198 200 76.2183C200 73.2386 199.282 70.381 198.003 68.274C196.724 66.1671 194.99 64.9834 193.182 64.9834V64.9834Z" fill="#CCCCCC"/>
<path d="M83.803 82.744C90.1528 66.3451 98.1568 69.3624 91.7959 85.7573C85.4463 102.156 77.4424 99.1385 83.803 82.744Z" fill="#2F2E41"/>
<path d="M35.6994 100.244C42.0428 65.4619 94.6507 73.8866 89.5108 108.857C83.1676 143.638 30.5598 135.213 35.6994 100.244Z" fill="#2F2E41"/>
<path d="M58.4647 125.646H50.1838V140.277H58.4647V125.646Z" fill="#2F2E41"/>
<path d="M75.0265 125.646H66.7456V140.277H75.0265V125.646Z" fill="#2F2E41"/>
<path d="M57.0846 137.896C66.0325 137.833 66.0326 143.063 57.0842 143C48.1368 143.062 48.1367 137.833 57.0846 137.896Z" fill="#2F2E41"/>
<path d="M73.6463 137.555C82.5941 137.493 82.5942 142.722 73.6459 142.659C64.6984 142.722 64.6983 137.492 73.6463 137.555Z" fill="#2F2E41"/>
<path d="M36.1642 79.5513C31.0432 56.5251 70.2706 47.8911 75.5633 70.8766C77.7641 80.596 70.5537 84.1811 59.674 86.5769C48.7943 88.9726 38.3651 89.2719 36.1642 79.5513Z" fill="#00B0FF"/>
<path d="M19.5897 86.317C21.5162 81.2049 47.0153 93.1314 44.2176 97.8369C42.2915 102.948 16.7924 91.0219 19.5897 86.317Z" fill="#2F2E41"/>
<path d="M158.157 67.6939C159.906 66.2132 157.446 60.5589 152.664 55.0646C147.881 49.5704 142.586 46.3168 140.837 47.7975C139.088 49.2782 141.547 54.9325 146.33 60.4268C151.113 65.921 156.408 69.1746 158.157 67.6939Z" fill="#2F2E41"/>
<path d="M97.4521 60.4266C102.235 54.9323 104.694 49.278 102.945 47.7973C101.196 46.3166 95.9012 49.5702 91.1184 55.0645C86.3356 60.5587 83.8762 66.213 85.6252 67.6938C87.3742 69.1745 92.6693 65.9208 97.4521 60.4266Z" fill="#2F2E41"/>
</svg>
