<svg width="496" height="329" viewBox="0 0 496 329" fill="none" xmlns="http://www.w3.org/2000/svg">
<path d="M294.857 294.658C250.043 276.04 206.992 253.428 166.221 227.096C68.315 164.047 1.55936 91.1239 0.107283 45.6334C-0.31737 32.3378 4.61585 21.7939 14.7701 14.2963C31.1957 2.16639 60.4795 -0.743934 99.4578 5.87335L98.4951 11.5587C61.0949 5.20702 33.3255 7.75875 18.1889 18.9362C9.65031 25.2419 5.50359 34.1613 5.86356 45.4495C7.25799 89.1286 72.953 160.178 169.337 222.246C209.812 248.389 252.551 270.838 297.04 289.322L294.857 294.658Z" fill="#7B7B7B"/>
<path d="M250.256 294.826C319.705 294.826 376.005 238.527 376.005 169.078C376.005 99.6292 319.705 43.3298 250.256 43.3298C180.807 43.3298 124.508 99.6292 124.508 169.078C124.508 238.527 180.807 294.826 250.256 294.826Z" fill="#047857"/>
<path d="M433.66 329C416.585 329 396.365 326.248 373.372 320.729L374.714 315.125C422.992 326.71 459.525 325.746 477.585 312.408C486.121 306.104 490.266 297.186 489.906 285.902C488.512 242.234 422.841 171.206 326.493 109.156C277.661 77.7062 225.796 51.5147 176.506 33.4133L178.489 28.0016C228.17 46.2464 280.425 72.6322 329.607 104.307C427.477 167.337 494.209 240.241 495.66 285.718C496.085 299.01 491.153 309.551 481.003 317.047C470.223 325.008 454.223 329 433.66 329Z" fill="#7B7B7B"/>
<path d="M138.797 34.7353C148.467 34.7353 156.305 27.0476 156.305 17.5643C156.305 8.08099 148.467 0.39325 138.797 0.39325C129.128 0.39325 121.29 8.08099 121.29 17.5643C121.29 27.0476 129.128 34.7353 138.797 34.7353Z" fill="#CBCBCB"/>
<path d="M332.056 323.613C341.725 323.613 349.563 315.925 349.563 306.442C349.563 296.959 341.725 289.271 332.056 289.271C322.386 289.271 314.548 296.959 314.548 306.442C314.548 315.925 322.386 323.613 332.056 323.613Z" fill="#CBCBCB"/>
</svg>
